<svg xmlns="http://www.w3.org/2000/svg" viewBox="0 0 1920 1080" preserveAspectRatio="xMidYMid slice">
  <defs>
    <!-- Rotated mask: x1/x2 controls the direction (Horizontal fade now) -->
    <linearGradient id="fadeMaskRotated" x1="0" y1="0" x2="1" y2="0">
      <stop offset="0%" stop-color="white" stop-opacity="1" />
      <stop offset="30%" stop-color="white" stop-opacity="1" />
      <stop offset="45%" stop-color="white" stop-opacity="0" />
      <stop offset="55%" stop-color="white" stop-opacity="0" />
      <stop offset="70%" stop-color="white" stop-opacity="1" />
      <stop offset="100%" stop-color="white" stop-opacity="1" />
    </linearGradient>

    <mask id="centerFade">
      <rect x="0" y="0" width="1920" height="1080" fill="url(#fadeMaskRotated)" />
    </mask>
  </defs>

  <rect width="100%" height="100%" fill="none" />

  <g mask="url(#centerFade)" stroke="hsl(0, 0%, 100%)" stroke-width="1.5">
    <!-- Radial Lines (Originating from Left/Right Edges) -->
    <line x1="0" y1="-5500.0" x2="960" y2="540" />
    <line x1="1920" y1="-5500.0" x2="960" y2="540" />
    <line x1="0" y1="-5344.0" x2="960" y2="540" />
    <line x1="1920" y1="-5344.0" x2="960" y2="540" />
    <line x1="0" y1="-5188.0" x2="960" y2="540" />
    <line x1="1920" y1="-5188.0" x2="960" y2="540" />
    <line x1="0" y1="-5032.0" x2="960" y2="540" />
    <line x1="1920" y1="-5032.0" x2="960" y2="540" />
    <line x1="0" y1="-4876.0" x2="960" y2="540" />
    <line x1="1920" y1="-4876.0" x2="960" y2="540" />
    <line x1="0" y1="-4720.0" x2="960" y2="540" />
    <line x1="1920" y1="-4720.0" x2="960" y2="540" />
    <line x1="0" y1="-4564.0" x2="960" y2="540" />
    <line x1="1920" y1="-4564.0" x2="960" y2="540" />
    <line x1="0" y1="-4408.0" x2="960" y2="540" />
    <line x1="1920" y1="-4408.0" x2="960" y2="540" />
    <line x1="0" y1="-4252.0" x2="960" y2="540" />
    <line x1="1920" y1="-4252.0" x2="960" y2="540" />
    <line x1="0" y1="-4096.0" x2="960" y2="540" />
    <line x1="1920" y1="-4096.0" x2="960" y2="540" />
    <line x1="0" y1="-3940.0" x2="960" y2="540" />
    <line x1="1920" y1="-3940.0" x2="960" y2="540" />
    <line x1="0" y1="-3784.0" x2="960" y2="540" />
    <line x1="1920" y1="-3784.0" x2="960" y2="540" />
    <line x1="0" y1="-3628.0" x2="960" y2="540" />
    <line x1="1920" y1="-3628.0" x2="960" y2="540" />
    <line x1="0" y1="-3472.0" x2="960" y2="540" />
    <line x1="1920" y1="-3472.0" x2="960" y2="540" />
    <line x1="0" y1="-3316.0" x2="960" y2="540" />
    <line x1="1920" y1="-3316.0" x2="960" y2="540" />
    <line x1="0" y1="-3160.0" x2="960" y2="540" />
    <line x1="1920" y1="-3160.0" x2="960" y2="540" />
    <line x1="0" y1="-3004.0" x2="960" y2="540" />
    <line x1="1920" y1="-3004.0" x2="960" y2="540" />
    <line x1="0" y1="-2848.0" x2="960" y2="540" />
    <line x1="1920" y1="-2848.0" x2="960" y2="540" />
    <line x1="0" y1="-2692.0" x2="960" y2="540" />
    <line x1="1920" y1="-2692.0" x2="960" y2="540" />
    <line x1="0" y1="-2536.0" x2="960" y2="540" />
    <line x1="1920" y1="-2536.0" x2="960" y2="540" />
    <line x1="0" y1="-2380.0" x2="960" y2="540" />
    <line x1="1920" y1="-2380.0" x2="960" y2="540" />
    <line x1="0" y1="-2224.0" x2="960" y2="540" />
    <line x1="1920" y1="-2224.0" x2="960" y2="540" />
    <line x1="0" y1="-2068.0" x2="960" y2="540" />
    <line x1="1920" y1="-2068.0" x2="960" y2="540" />
    <line x1="0" y1="-1912.0" x2="960" y2="540" />
    <line x1="1920" y1="-1912.0" x2="960" y2="540" />
    <line x1="0" y1="-1756.0" x2="960" y2="540" />
    <line x1="1920" y1="-1756.0" x2="960" y2="540" />
    <line x1="0" y1="-1600.0" x2="960" y2="540" />
    <line x1="1920" y1="-1600.0" x2="960" y2="540" />
    <line x1="0" y1="-1444.0" x2="960" y2="540" />
    <line x1="1920" y1="-1444.0" x2="960" y2="540" />
    <line x1="0" y1="-1288.0" x2="960" y2="540" />
    <line x1="1920" y1="-1288.0" x2="960" y2="540" />
    <line x1="0" y1="-1132.0" x2="960" y2="540" />
    <line x1="1920" y1="-1132.0" x2="960" y2="540" />
    <line x1="0" y1="-976.0" x2="960" y2="540" />
    <line x1="1920" y1="-976.0" x2="960" y2="540" />
    <line x1="0" y1="-820.0" x2="960" y2="540" />
    <line x1="1920" y1="-820.0" x2="960" y2="540" />
    <line x1="0" y1="-664.0" x2="960" y2="540" />
    <line x1="1920" y1="-664.0" x2="960" y2="540" />
    <line x1="0" y1="-508.0" x2="960" y2="540" />
    <line x1="1920" y1="-508.0" x2="960" y2="540" />
    <line x1="0" y1="-352.0" x2="960" y2="540" />
    <line x1="1920" y1="-352.0" x2="960" y2="540" />
    <line x1="0" y1="-196.0" x2="960" y2="540" />
    <line x1="1920" y1="-196.0" x2="960" y2="540" />
    <line x1="0" y1="-40.0" x2="960" y2="540" />
    <line x1="1920" y1="-40.0" x2="960" y2="540" />
    <line x1="0" y1="116.0" x2="960" y2="540" />
    <line x1="1920" y1="116.0" x2="960" y2="540" />
    <line x1="0" y1="272.0" x2="960" y2="540" />
    <line x1="1920" y1="272.0" x2="960" y2="540" />
    <line x1="0" y1="428.0" x2="960" y2="540" />
    <line x1="1920" y1="428.0" x2="960" y2="540" />
    <line x1="0" y1="584.0" x2="960" y2="540" />
    <line x1="1920" y1="584.0" x2="960" y2="540" />
    <line x1="0" y1="740.0" x2="960" y2="540" />
    <line x1="1920" y1="740.0" x2="960" y2="540" />
    <line x1="0" y1="896.0" x2="960" y2="540" />
    <line x1="1920" y1="896.0" x2="960" y2="540" />
    <line x1="0" y1="1052.0" x2="960" y2="540" />
    <line x1="1920" y1="1052.0" x2="960" y2="540" />
    <line x1="0" y1="1208.0" x2="960" y2="540" />
    <line x1="1920" y1="1208.0" x2="960" y2="540" />
    <line x1="0" y1="1364.0" x2="960" y2="540" />
    <line x1="1920" y1="1364.0" x2="960" y2="540" />
    <line x1="0" y1="1520.0" x2="960" y2="540" />
    <line x1="1920" y1="1520.0" x2="960" y2="540" />
    <line x1="0" y1="1676.0" x2="960" y2="540" />
    <line x1="1920" y1="1676.0" x2="960" y2="540" />
    <line x1="0" y1="1832.0" x2="960" y2="540" />
    <line x1="1920" y1="1832.0" x2="960" y2="540" />
    <line x1="0" y1="1988.0" x2="960" y2="540" />
    <line x1="1920" y1="1988.0" x2="960" y2="540" />
    <line x1="0" y1="2144.0" x2="960" y2="540" />
    <line x1="1920" y1="2144.0" x2="960" y2="540" />
    <line x1="0" y1="2300.0" x2="960" y2="540" />
    <line x1="1920" y1="2300.0" x2="960" y2="540" />
    <line x1="0" y1="2456.0" x2="960" y2="540" />
    <line x1="1920" y1="2456.0" x2="960" y2="540" />
    <line x1="0" y1="2612.0" x2="960" y2="540" />
    <line x1="1920" y1="2612.0" x2="960" y2="540" />
    <line x1="0" y1="2768.0" x2="960" y2="540" />
    <line x1="1920" y1="2768.0" x2="960" y2="540" />
    <line x1="0" y1="2924.0" x2="960" y2="540" />
    <line x1="1920" y1="2924.0" x2="960" y2="540" />
    <line x1="0" y1="3080.0" x2="960" y2="540" />
    <line x1="1920" y1="3080.0" x2="960" y2="540" />
    <line x1="0" y1="3236.0" x2="960" y2="540" />
    <line x1="1920" y1="3236.0" x2="960" y2="540" />
    <line x1="0" y1="3392.0" x2="960" y2="540" />
    <line x1="1920" y1="3392.0" x2="960" y2="540" />
    <line x1="0" y1="3548.0" x2="960" y2="540" />
    <line x1="1920" y1="3548.0" x2="960" y2="540" />
    <line x1="0" y1="3704.0" x2="960" y2="540" />
    <line x1="1920" y1="3704.0" x2="960" y2="540" />
    <line x1="0" y1="3860.0" x2="960" y2="540" />
    <line x1="1920" y1="3860.0" x2="960" y2="540" />
    <line x1="0" y1="4016.0" x2="960" y2="540" />
    <line x1="1920" y1="4016.0" x2="960" y2="540" />
    <line x1="0" y1="4172.0" x2="960" y2="540" />
    <line x1="1920" y1="4172.0" x2="960" y2="540" />
    <line x1="0" y1="4328.0" x2="960" y2="540" />
    <line x1="1920" y1="4328.0" x2="960" y2="540" />
    <line x1="0" y1="4484.0" x2="960" y2="540" />
    <line x1="1920" y1="4484.0" x2="960" y2="540" />
    <line x1="0" y1="4640.0" x2="960" y2="540" />
    <line x1="1920" y1="4640.0" x2="960" y2="540" />
    <line x1="0" y1="4796.0" x2="960" y2="540" />
    <line x1="1920" y1="4796.0" x2="960" y2="540" />
    <line x1="0" y1="4952.0" x2="960" y2="540" />
    <line x1="1920" y1="4952.0" x2="960" y2="540" />
    <line x1="0" y1="5108.0" x2="960" y2="540" />
    <line x1="1920" y1="5108.0" x2="960" y2="540" />
    <line x1="0" y1="5264.0" x2="960" y2="540" />
    <line x1="1920" y1="5264.0" x2="960" y2="540" />
    <line x1="0" y1="5420.0" x2="960" y2="540" />
    <line x1="1920" y1="5420.0" x2="960" y2="540" />
    <line x1="0" y1="5576.0" x2="960" y2="540" />
    <line x1="1920" y1="5576.0" x2="960" y2="540" />
    <line x1="0" y1="5732.0" x2="960" y2="540" />
    <line x1="1920" y1="5732.0" x2="960" y2="540" />
    <line x1="0" y1="5888.0" x2="960" y2="540" />
    <line x1="1920" y1="5888.0" x2="960" y2="540" />
    <line x1="0" y1="6044.0" x2="960" y2="540" />
    <line x1="1920" y1="6044.0" x2="960" y2="540" />
    <line x1="0" y1="6200.0" x2="960" y2="540" />
    <line x1="1920" y1="6200.0" x2="960" y2="540" />
    <line x1="0" y1="6356.0" x2="960" y2="540" />
    <line x1="1920" y1="6356.0" x2="960" y2="540" />
    <line x1="0" y1="6512.0" x2="960" y2="540" />
    <line x1="1920" y1="6512.0" x2="960" y2="540" />
    <line x1="0" y1="6668.0" x2="960" y2="540" />
    <line x1="1920" y1="6668.0" x2="960" y2="540" />
    <line x1="0" y1="6824.0" x2="960" y2="540" />
    <line x1="1920" y1="6824.0" x2="960" y2="540" />
    <line x1="0" y1="6980.0" x2="960" y2="540" />
    <line x1="1920" y1="6980.0" x2="960" y2="540" />
    <line x1="0" y1="7136.0" x2="960" y2="540" />
    <line x1="1920" y1="7136.0" x2="960" y2="540" />
    <line x1="0" y1="7292.0" x2="960" y2="540" />
    <line x1="1920" y1="7292.0" x2="960" y2="540" />
    <line x1="0" y1="7448.0" x2="960" y2="540" />
    <line x1="1920" y1="7448.0" x2="960" y2="540" />

    <!-- Vertical Perspective Lines (Rotated) -->
    <line x1="-288.0" y1="0" x2="-288.0" y2="1080" />
    <line x1="2208.0" y1="0" x2="2208.0" y2="1080" />
    <line x1="12.0" y1="0" x2="12.0" y2="1080" />
    <line x1="1908.0" y1="0" x2="1908.0" y2="1080" />
    <line x1="258.0" y1="0" x2="258.0" y2="1080" />
    <line x1="1662.0" y1="0" x2="1662.0" y2="1080" />
    <line x1="492.0" y1="0" x2="492.0" y2="1080" />
    <line x1="1428.0" y1="0" x2="1428.0" y2="1080" />
    <line x1="609.0" y1="0" x2="609.0" y2="1080" />
    <line x1="1311.0" y1="0" x2="1311.0" y2="1080" />
    <line x1="679.2" y1="0" x2="679.2" y2="1080" />
    <line x1="1240.8" y1="0" x2="1240.8" y2="1080" />
    <line x1="726.0" y1="0" x2="726.0" y2="1080" />
    <line x1="1194.0" y1="0" x2="1194.0" y2="1080" />
    <line x1="759.8" y1="0" x2="759.8" y2="1080" />
    <line x1="1160.2" y1="0" x2="1160.2" y2="1080" />
    <line x1="784.5" y1="0" x2="784.5" y2="1080" />
    <line x1="1135.5" y1="0" x2="1135.5" y2="1080" />
    <line x1="804.0" y1="0" x2="804.0" y2="1080" />
    <line x1="1116.0" y1="0" x2="1116.0" y2="1080" />
    <line x1="819.6" y1="0" x2="819.6" y2="1080" />
    <line x1="1100.4" y1="0" x2="1100.4" y2="1080" />
    <line x1="832.6" y1="0" x2="832.6" y2="1080" />
    <line x1="1087.4" y1="0" x2="1087.4" y2="1080" />
    <line x1="843.0" y1="0" x2="843.0" y2="1080" />
    <line x1="1077.0" y1="0" x2="1077.0" y2="1080" />
    <line x1="852.1" y1="0" x2="852.1" y2="1080" />
    <line x1="1067.9" y1="0" x2="1067.9" y2="1080" />
    <line x1="859.9" y1="0" x2="859.9" y2="1080" />
    <line x1="1060.1" y1="0" x2="1060.1" y2="1080" />
    <line x1="866.4" y1="0" x2="866.4" y2="1080" />
    <line x1="1053.6" y1="0" x2="1053.6" y2="1080" />
    <line x1="872.9" y1="0" x2="872.9" y2="1080" />
    <line x1="1047.1" y1="0" x2="1047.1" y2="1080" />
    <line x1="878.1" y1="0" x2="878.1" y2="1080" />
    <line x1="1041.9" y1="0" x2="1041.9" y2="1080" />
    <line x1="882.0" y1="0" x2="882.0" y2="1080" />
    <line x1="1038.0" y1="0" x2="1038.0" y2="1080" />
    <line x1="887.2" y1="0" x2="887.2" y2="1080" />
    <line x1="1032.8" y1="0" x2="1032.8" y2="1080" />
    <line x1="891.1" y1="0" x2="891.1" y2="1080" />
    <line x1="1028.9" y1="0" x2="1028.9" y2="1080" />
    <line x1="895.0" y1="0" x2="895.0" y2="1080" />
    <line x1="1025.0" y1="0" x2="1025.0" y2="1080" />
    <line x1="898.9" y1="0" x2="898.9" y2="1080" />
    <line x1="1021.1" y1="0" x2="1021.1" y2="1080" />
    <line x1="901.5" y1="0" x2="901.5" y2="1080" />
    <line x1="1018.5" y1="0" x2="1018.5" y2="1080" />
  </g>
</svg>